#!OML:ASF I:\Actors\actors\Patient Classification 2\Patient 1\Session 1\actor1.ASF
:FULLY-SPECIFIED
:DEGREES
88
root -0.587265 18.1947 5.55314 4.57008 -3.85992 -2.23524
lowerback -2.30199 1.79235 0.990057
upperback -4.11967 2.38461 -0.129252
thorax -2.89581 1.16023 -0.692136
lowerneck -9.60842 -2.91911 -1.86505
upperneck 22.9505 -4.87973 4.80264
head 8.91747 -1.96706 1.43047
rclavicle -2.03754e-015 -1.43125e-014
rhumerus -51.3728 -4.97283 -86.4326
rradius 42.1319
rwrist 14.3962
rhand -7.63331 -40.2301
rfingers 7.12502
rthumb 18.2616 -69.3929
lclavicle -2.03754e-015 -1.43125e-014
lhumerus -44.3306 0.110021 90.3246
lradius 37.0494
lwrist -3.30735
lhand -6.64513 -23.2033
lfingers 7.12502
lthumb 19.2121 5.86775
rfemur 6.19691 3.42366 15.6307
rtibia -7.89895
rfoot -11.201 -11.5798
rtoes 3.48044
lfemur 9.61627 -9.61833 -12.6633
ltibia -9.798
lfoot -10.016 21.0387
ltoes -8.68429
89
root -0.586308 18.1944 5.5512 4.54324 -3.87632 -2.22808
lowerback -2.29139 1.79093 0.984029
upperback -4.09188 2.38287 -0.121007
thorax -2.87361 1.15991 -0.680088
lowerneck -9.62659 -2.91515 -1.86977
upperneck 22.9451 -4.8714 4.79644
head 8.91861 -1.96397 1.42978
rclavicle -7.57867e-015 -1.98785e-015
rhumerus -51.3417 -4.93029 -86.4165
rradius 42.0877
rwrist 14.2044
rhand -6.63333 -40.846
rfingers 7.12502
rthumb 19.2234 -69.9159
lclavicle -7.57867e-015 -1.98785e-015
lhumerus -44.3027 0.145545 90.3233
lradius 37.0331
lwrist -3.30722
lhand -6.60667 -23.2358
lfingers 7.12502
lthumb 19.2491 5.83155
rfemur 6.22496 3.44153 15.6227
rtibia -7.91999
rfoot -11.1948 -11.5883
rtoes 3.53601
lfemur 9.63617 -9.60494 -12.6832
ltibia -9.78411
lfoot -10.0096 21.0185
ltoes -8.64824
90
root -0.585962 18.1948 5.54976 4.54161 -3.89451 -2.23221
lowerback -2.31895 1.7955 0.996277
upperback -4.06471 2.38844 -0.11953
thorax -2.82947 1.16275 -0.683857
lowerneck -9.66944 -2.92056 -1.87318
upperneck 22.9579 -4.87798 4.7927
head 8.93131 -1.9668 1.42782
rclavicle -3.44643e-014 7.95139e-015
rhumerus -51.2873 -4.96582 -86.3696
rradius 42.0205
rwrist 14.2053
rhand -6.07094 -41.0399
rfingers 7.12502
rthumb 19.7642 -70.0551
lclavicle -3.44643e-014 7.95139e-015
lhumerus -44.2661 0.132378 90.3377
lradius 37.0156
lwrist -3.2629
lhand -6.59891 -23.2295
lfingers 7.12502
lthumb 19.2565 5.83711
rfemur 6.21715 3.45987 15.6271
rtibia -7.9132
rfoot -11.2021 -11.5887
rtoes 3.5995
lfemur 9.64279 -9.58591 -12.6872
ltibia -9.79246
lfoot -9.96228 21.0136
ltoes -8.65823
91
root -0.58609 18.1956 5.54799 4.56125 -3.89719 -2.24071
lowerback -2.33597 1.8016 1.01015
upperback -4.06135 2.39625 -0.121367
thorax -2.81567 1.16634 -0.692809
lowerneck -9.67912 -2.93638 -1.88661
upperneck 22.951 -4.90171 4.81151
head 8.93252 -1.97711 1.43374
rclavicle -9.81499e-015 1.27222e-014
rhumerus -51.26 -5.00424 -86.329
rradius 41.973
rwrist 14.3073
rhand -6.04634 -40.8333
rfingers 7.12502
rthumb 19.7878 -69.8461
lclavicle -9.81499e-015 1.27222e-014
lhumerus -44.2466 0.089895 90.3675
lradius 36.9948
lwrist -3.15125
lhand -6.61217 -23.2322
lfingers 7.12502
lthumb 19.2438 5.83568
rfemur 6.18211 3.46085 15.6415
rtibia -7.90385
rfoot -11.1864 -11.6159
rtoes 3.38889
lfemur 9.62031 -9.58023 -12.6754
ltibia -9.8025
lfoot -9.92503 21.0263
ltoes -8.89268
92
root -0.586692 18.1967 5.5455 4.59716 -3.89017 -2.25029
lowerback -2.35656 1.80183 1.00306
upperback -4.06635 2.39656 -0.112373
thorax -2.80995 1.16687 -0.67902
lowerneck -9.66908 -2.94476 -1.90578
upperneck 22.924 -4.91455 4.83742
head 8.923 -1.98272 1.44444
rclavicle -7.10655e-015 7.55382e-015
rhumerus -51.256 -4.96554 -86.3276
rradius 41.9599
rwrist 14.3357
rhand -6.07742 -40.7785
rfingers 7.12502
rthumb 19.7579 -69.7943
lclavicle -7.10655e-015 7.55382e-015
lhumerus -44.2161 0.135581 90.3623
lradius 36.9396
lwrist -3.18128
lhand -6.62945 -23.2777
lfingers 7.12502
lthumb 19.2272 5.79185
rfemur 6.13756 3.45123 15.6555
rtibia -7.91837
rfoot -11.17 -11.6466
rtoes 3.19598
lfemur 9.56109 -9.58324 -12.6511
ltibia -9.79182
lfoot -9.92426 21.0125
ltoes -8.86205
93
root -0.58778 18.1978 5.54296 4.61495 -3.87307 -2.26085
lowerback -2.37208 1.79688 0.998177
upperback -4.05618 2.38992 -0.103383
thorax -2.79139 1.16401 -0.666316
lowerneck -9.69805 -2.93879 -1.92507
upperneck 22.9199 -4.9085 4.86468
head 8.928 -1.97826 1.45721
rclavicle 1.46604e-015 7.15625e-015
rhumerus -51.2547 -4.90786 -86.3426
rradius 41.9613
rwrist 14.3677
rhand -6.10564 -40.8126
rfingers 7.12502
rthumb 19.7308 -69.8312
lclavicle 1.46604e-015 7.15625e-015
lhumerus -44.184 0.164028 90.3616
lradius 36.8955
lwrist -3.24544
lhand -6.70809 -23.2612
lfingers 7.12502
lthumb 19.1516 5.81589
rfemur 6.11732 3.43245 15.6774
rtibia -7.92571
rfoot -11.1351 -11.6744
rtoes 2.87714
lfemur 9.51848 -9.59846 -12.6278
ltibia -9.78033
lfoot -9.91793 20.9847
ltoes -8.67095
